<?xml version="1.0" encoding="utf-8"?>
<!-- Generator: Adobe Illustrator 18.0.0, SVG Export Plug-In . SVG Version: 6.00 Build 0)  -->
<!DOCTYPE svg PUBLIC "-//W3C//DTD SVG 1.1//EN" "http://www.w3.org/Graphics/SVG/1.1/DTD/svg11.dtd">
<svg version="1.1" id="Layer_1" xmlns="http://www.w3.org/2000/svg" xmlns:xlink="http://www.w3.org/1999/xlink" x="0px" y="0px"
	 width="300px" height="127.392px" viewBox="0 0 300 127.4" enable-background="new 0 0 300 127.4" xml:space="preserve">
<g>
	<g>
		<g>
			<path fill="#FFFFFF" d="M132.3,97.6c-2.3,0-4.4-0.3-6.3-0.8c-1.9-0.5-3.9-1.5-6-2.9l4-6.3c1.2,0.7,2.2,1.2,3.1,1.5
				c0.9,0.3,2,0.4,3.3,0.4c1.8,0,3.2-0.7,4.3-2c1.1-1.3,1.6-3,1.6-5V49.8h10v33.3c0,4.5-1.3,8-3.8,10.6
				C139.9,96.3,136.5,97.6,132.3,97.6z"/>
			<path fill="#FFFFFF" d="M196.7,74.2c0.2,0,0.3,0.1,0.3,0.3v7.2c0,0.2-0.1,0.3-0.3,0.3h-8.4c0,5-1.5,8.8-4.6,11.5
				c-3.1,2.7-7.4,4.1-13.1,4.1c-3,0-5.7-0.2-7.9-0.7c-2.2-0.5-4.3-1.3-6.4-2.5l3.9-7.1c1.8,0.9,3.5,1.6,5.1,1.9
				c1.6,0.4,3.3,0.6,5,0.6c2.5,0,4.5-0.7,5.9-2c1.4-1.3,2.1-3.2,2.1-5.5V82h-6.6c-4.8,0-8.4-1.3-11-3.9c-2.6-2.6-3.9-6.4-3.9-11.2
				c0-3.4,0.9-6.4,2.6-9c1.8-2.6,4.3-4.6,7.5-6c3.2-1.4,7-2.1,11.2-2.1h10.2v24.4L196.7,74.2L196.7,74.2L196.7,74.2z M178.3,74.2
				V57.6h-2.2c-2.9,0-5.1,0.8-6.7,2.4c-1.6,1.6-2.4,3.8-2.4,6.6c0,2.6,0.5,4.5,1.6,5.8c1.1,1.2,2.8,1.8,5,1.8
				C173.7,74.2,178.3,74.2,178.3,74.2z"/>
			<path fill="#FFFFFF" d="M196,82c-0.2,0-0.3-0.1-0.3-0.3v-7.2c0-0.2,0.1-0.3,0.3-0.3h7.9V49.8h10v11.4c4.1-8,10.1-12,18.2-12
				c5.5,0,9.6,1.4,12.4,4.2c2.8,2.8,4.2,7.1,4.2,13v7.8h8.7c0.2,0,0.3,0.1,0.3,0.3v7.2c0,0.2-0.1,0.3-0.3,0.3
				C257.4,82,196,82,196,82z M238.6,74.2v-8c0-3.2-0.7-5.5-2.2-7c-1.5-1.5-3.8-2.2-6.9-2.2c-6,0-11.2,4-15.6,12.1v5.1H238.6z
				 M228.7,44.2c-1.4,0-2.5-0.4-3.3-1.3c-0.8-0.8-1.2-2-1.2-3.4c0-1.5,0.4-2.6,1.2-3.4c0.8-0.8,1.9-1.3,3.3-1.3
				c1.4,0,2.4,0.4,3.2,1.2c0.8,0.8,1.2,2,1.2,3.5c0,1.4-0.4,2.6-1.2,3.4C231.1,43.8,230,44.2,228.7,44.2z"/>
			<path fill="#FFFFFF" d="M256.7,82c-0.2,0-0.3-0.1-0.3-0.3v-7.2c0-0.2,0.1-0.3,0.3-0.3h27v-0.1c-1.7-1.5-3.1-4.6-4-9.2
				c-0.6-2.9-1.5-5-2.7-6.1c-1.2-1.2-3-1.8-5.3-1.8c-1.6,0-3,0.2-4.4,0.6c-1.4,0.4-2.9,1-4.5,1.9l-3-7.1c4-2.1,8.7-3.1,14-3.1
				c4.5,0,7.9,1,10.4,2.9c2.5,1.9,4.1,5.2,4.9,9.6c1.2,6.5,2.7,10.6,4.7,12.5V82L256.7,82L256.7,82z"/>
		</g>
	</g>
	<rect x="100.5" y="18.7" fill="#FFFFFF" width="2.5" height="98.8"/>
	<g>
		<path fill="#F03D3D" d="M7.8,38.4c0.8,0.2,1.5,0.2,3.7-1.5c1-0.8,2.4-2,3.8-3.8l0.6-0.8c5-6.6,16.7-22.2,33.6-21.4
			C63.3,12,73.2,22.5,78,41.4c0.2,0.6,0.3,1,0.4,1.3c0.7,3.1,1.9,6.9,3.7,8.2c0.4,0.3,0.9,0.5,1.4,0.5c0.8,0,1.5-0.4,2-1
			c0.8-1.1,0.6-2.5-0.4-3.3c-0.5-0.6-1.4-3.3-1.9-5.6c0-0.1-0.1-0.3-0.1-0.4c0-0.2-0.1-0.5-0.2-0.8c-0.8-3-2.8-11-7.6-18.4
			c-6.3-9.7-14.8-15-25.4-15.7c0,0,0,0-0.1,0c-19.5-1-32.3,16-37.8,23.3l-0.6,0.8c-1.5,2-3.3,3.2-3.9,3.6c-0.2,0.1-0.4,0.2-0.6,0.3
			c-0.8,0.6-1.1,1.6-0.9,2.5C6.1,37.5,6.8,38.2,7.8,38.4z"/>
		<path fill="#F03D3D" d="M69.4,47.9c1.9-4.6,1.9-9.4,0.1-13.1C67.9,31.4,65,29,61,27.8c-5.9-1.8-13,1.5-19.6,9
			c-0.1,0.1-9.4,9.9-19.2,15.9c-0.1,0-7.2,4.3-14.7,6.4c-1.3,0.4-2.1,1.7-1.7,3c0.4,1.3,1.7,2.1,3,1.7c8.1-2.2,15.6-6.7,16-6.9
			C35.4,50.3,45,40.1,45.1,40c4-4.5,9.8-8.9,14.4-7.5c2.7,0.8,4.6,2.3,5.6,4.4c1.2,2.5,1.1,5.8-0.3,9.2c-2.5,6.3-10.3,13.8-22,21.3
			c-5.9,3.7-20.6,13-31,17.4c-1.3,0.5-1.8,2-1.3,3.2c0.4,0.9,1.3,1.5,2.3,1.5c0.3,0,0.7-0.1,1-0.2c10.7-4.6,25.8-14,31.7-17.8
			C54.4,65.8,65.7,57.1,69.4,47.9z"/>
		<path fill="#F03D3D" d="M29.8,29.5c-1.1,1.2-2.1,2.6-3.2,3.8c-1.4,1.7-3,3.2-4.6,4.7c-1.7,1.5-3,2.6-5,3.7
			c-2.1,1.2-4.2,2.4-6.3,3.4C10,45.5,9.3,45.7,8.5,46c-1.3,0.4-2.1,1.7-1.7,3c0.3,1.3,1.7,2.1,3,1.7c2.5-0.8,4.8-2.1,7.1-3.3
			c1.9-1.1,3.8-2.1,5.6-3.4c3.4-2.6,6.4-5.7,9.1-9c1.1-1.4,2.3-2.6,3.5-3.9c0.7-0.7,1.4-1.3,2.1-2c0.4-0.3,0.7-0.7,1.1-1
			c0.2-0.2,0.4-0.3,0.6-0.5c0.1,0,0.4-0.3,0.5-0.4c1.7-1.3,3.5-2.5,5.5-3.5c1.8-0.9,3.6-1.6,5.8-2c0.7-0.2,0.9-0.2,1.4-0.2
			c1.3-0.1,2.5-1,2.5-2.5c0-1.2-1.1-2.6-2.5-2.5C43.2,17.5,35.6,23,29.8,29.5z"/>
		<path fill="#F03D3D" d="M10.6,76.6C16,74.8,43.4,64.5,58.8,43c0.8-1.1,0.5-2.6-0.6-3.4c-1.1-0.8-2.6-0.5-3.4,0.6
			C40.3,60.5,14.1,70.2,9,72C8.9,72,8.8,72,8.8,72c-1.3,0.5-1.9,1.9-1.4,3.2c0.4,1,1.3,1.6,2.3,1.6C10,76.8,10.3,76.8,10.6,76.6
			L10.6,76.6z"/>
		<path fill="#F03D3D" d="M77.6,91.3c-3.4-1.1-7.6-4.1-11.6-7c-5.8-4.2-10.9-7.8-15-7.1c-3.1,0.5-8.5,4-17,9.6
			c-6.1,4.1-13.1,8.6-16.1,9.5c-1.3,0.4-2.1,1.7-1.7,3c0.3,1.1,1.3,1.8,2.4,1.8c0.2,0,0.4,0,0.6-0.1c3.8-1,10.5-5.4,17.6-10.1
			c5.7-3.8,12.8-8.5,15.1-8.9c2.1-0.4,7.2,3.3,11.3,6.2c4.3,3.1,8.8,6.3,12.9,7.6c1.3,0.4,2.7-0.3,3.1-1.6
			C79.6,93.1,78.9,91.7,77.6,91.3z"/>
		<path fill="#F03D3D" d="M71.4,103.3c-2-0.7-5.2-2.7-8.3-4.6c-6.6-4.1-10.8-6.5-13.8-6c-3,0.5-9.4,4.9-20.2,12.7
			c-1.3,1-2.4,1.8-3.2,2.3c-1.1,0.8-1.4,2.3-0.6,3.4c0.5,0.7,1.2,1,2,1c0.5,0,1-0.1,1.4-0.4c0.8-0.6,2-1.4,3.3-2.4
			c4.3-3.1,15.6-11.4,18.1-11.8c1.5-0.1,7.1,3.3,10.4,5.4c3.5,2.2,6.8,4.2,9.2,5.1c1.3,0.5,2.7-0.2,3.2-1.5
			C73.4,105.2,72.7,103.8,71.4,103.3z"/>
		<path fill="#F03D3D" d="M63.1,115.6c-1.4-0.9-2.7-1.8-3.9-2.7c-4-2.9-7.5-5.4-11.3-4.7c-4.3,0.7-11.2,7.6-12.5,9
			c-0.9,1-0.9,2.5,0.1,3.5c0.5,0.5,1.1,0.7,1.7,0.7c0.6,0,1.3-0.3,1.8-0.8c3.3-3.4,8-7.3,9.8-7.6c1.8-0.3,4.5,1.6,7.7,3.9
			c1.2,0.9,2.6,1.8,4.1,2.8c1.1,0.7,2.7,0.4,3.4-0.7C64.6,117.8,64.2,116.3,63.1,115.6z"/>
		<path fill="#F03D3D" d="M84.8,64.8c-2.1-0.9-4.2-1.8-5.9-3.2c-1.9-1.6-2.8-3.7-3.2-6.1c-0.5-3.1-5.3-1.8-4.7,1.3
			c1.1,6.4,5.8,9.8,11.4,12.2c1.2,0.5,2.6,0.4,3.4-0.9C86.3,67.1,86,65.3,84.8,64.8z"/>
		<path fill="#F03D3D" d="M80,77.6c-1.8-0.6-3.3-1.3-5.2-2.4c-3.6-2.1-6.8-5.2-8.4-9.1c-0.5-1.2-1.6-2.1-3-1.7
			c-1.2,0.3-2.2,1.8-1.7,3c2.9,7.2,9.7,12.7,17.1,15C81.7,83.3,83,78.5,80,77.6z"/>
	</g>
	<rect x="118.2" y="99.6" fill="#FFFFFF" width="176.1" height="0.8"/>
</g>
</svg>
